<?xml version="1.0" encoding="UTF-8" standalone="no"?>
<svg width="380px" height="380px" viewBox="0 0 380 380" version="1.1" xmlns="http://www.w3.org/2000/svg" xmlns:xlink="http://www.w3.org/1999/xlink" xmlns:sketch="http://www.bohemiancoding.com/sketch/ns">
    <!-- Generator: Sketch 3.3.3 (12081) - http://www.bohemiancoding.com/sketch -->
    <title>Your Trusted Specialist Copy + TRAZTEC Copy</title>
    <desc>Created with Sketch.</desc>
    <defs>
        <linearGradient x1="50%" y1="100%" x2="50%" y2="0%" id="linearGradient-1">
            <stop stop-color="#163E6B" offset="0%"></stop>
            <stop stop-color="#0175A6" offset="100%"></stop>
        </linearGradient>
    </defs>
    <g id="Page-1" stroke="none" stroke-width="1" fill="none" fill-rule="evenodd" sketch:type="MSPage">
        <g id="Artboard-1" sketch:type="MSArtboardGroup" transform="translate(-10.000000, -10.000000)">
            <g id="Your-Trusted-Specialist-Copy-+-TRAZTEC-Copy" sketch:type="MSLayerGroup" transform="translate(10.000000, 10.000000)">
                <path d="M190,380 C294.934102,380 380,294.934102 380,190 C380,85.0658975 294.934102,0 190,0 C85.0658975,0 0,85.0658975 0,190 C0,294.934102 85.0658975,380 190,380 Z" id="Oval-1" fill="url(#linearGradient-1)" sketch:type="MSShapeGroup"></path>
                <g id="TRAZTEC-Copy" transform="translate(10.000000, 132.000000)" fill="#FFFFFF" sketch:type="MSShapeGroup">
                    <path d="M232.194471,116.86963 L119.498957,116.86963 L196.988278,26.7024724 L145.272843,26.7024724 L119.612534,0.717505284 L257.916977,0.717505284 L180.433065,90.8846628 L257.916977,90.8846628 L232.194471,116.86963 Z" id="Fill-1"></path>
                    <g id="Fill-2-+-Fill-3-+-Fill-4" transform="translate(0.000000, 43.000000)">
                        <path d="M46.4491264,0.28954666 L38.7478468,8.08272848 L28.4580467,8.08272848 L28.4580467,35.103183 L17.9926475,41.1215397 L17.9926475,8.08272848 L7.70441528,8.08272848 L0,0.28954666 L46.4491264,0.28954666" id="Fill-2"></path>
                        <path d="M95.3676166,35.103183 L84.8990817,35.103183 L84.8990817,26.5610502 L81.747703,23.4818544 L61.7356646,23.4818544 L61.7356646,35.103183 L51.2702654,41.1215397 L51.2702654,0.28954666 L87.4876021,0.28954666 L95.3676166,11.0297565 L89.3690222,19.1140222 L95.3676166,25.1355257 L95.3676166,35.103183 L95.3676166,35.103183 Z M84.6121651,11.6937425 L81.8856738,8.08272848 L61.7356646,8.08272848 L61.7356646,15.5738124 L81.8057135,15.5738124 L84.6121651,11.6937425 L84.6121651,11.6937425 Z" id="Fill-3"></path>
                        <path d="M143.342261,35.103183 L132.87843,35.103183 L132.87843,25.1355257 L111.772032,25.1355257 L111.772032,35.1629732 L101.305065,41.1215397 L101.305065,8.08272848 L109.183511,0.28954666 L135.463814,0.28954666 L143.342261,8.08272848 L143.342261,35.103183 L143.342261,35.103183 Z M111.772032,17.4619243 L132.879998,17.4619243 L132.879998,8.08115505 L111.772032,8.08115505 L111.772032,17.4619243 Z" id="Fill-4"></path>
                    </g>
                    <g id="Fill-5-+-Fill-6-+-Fill-7" transform="translate(223.000000, 43.000000)">
                        <path d="M46.7407303,0.28954666 L39.036315,8.08272848 L28.746515,8.08272848 L28.746515,35.103183 L18.2795479,41.1215397 L18.2795479,8.08272848 L7.99131566,8.08272848 L0.290036088,0.28954666 L46.7407303,0.28954666" id="Fill-5"></path>
                        <path d="M93.0095539,0.28954666 L85.3082743,8.08272848 L62.0241329,8.08272848 L62.0241329,14.2175187 L87.9516696,14.2175187 L80.8994799,21.2963648 L62.0241329,21.2963648 L62.0241329,27.3162949 L91.7756559,27.3162949 L84.014798,35.103183 L51.5587336,35.103183 L51.5587336,0.28954666 L93.0095539,0.28954666" id="Fill-6"></path>
                        <path d="M137.86888,0.28954666 L130.167601,8.08272848 L106.885027,8.08272848 L106.885027,27.3162949 L136.634982,27.3162949 L128.874124,35.103183 L104.298074,35.103183 L96.4164921,27.3162949 L96.4164921,8.232204 L104.298074,0.28954666 L137.86888,0.28954666" id="Fill-7"></path>
                    </g>
                </g>
            </g>
        </g>
    </g>
</svg>