<?xml version="1.0" encoding="UTF-8" standalone="no"?>
<svg width="329px" height="64px" viewBox="0 0 329 64" version="1.1" xmlns="http://www.w3.org/2000/svg" xmlns:xlink="http://www.w3.org/1999/xlink" xmlns:sketch="http://www.bohemiancoding.com/sketch/ns">
    <!-- Generator: Sketch 3.3.3 (12081) - http://www.bohemiancoding.com/sketch -->
    <title>Your Trusted Specialist Copy + TRAZTEC Copy</title>
    <desc>Created with Sketch.</desc>
    <defs></defs>
    <g id="Page-1" stroke="none" stroke-width="1" fill="none" fill-rule="evenodd" sketch:type="MSPage">
        <g id="Artboard-1-Copy" sketch:type="MSArtboardGroup" transform="translate(0.000000, -18.000000)" fill="#163E6B">
            <g id="Your-Trusted-Specialist-Copy-+-TRAZTEC-Copy" sketch:type="MSLayerGroup" transform="translate(0.000000, 18.000000)">
                <g id="TRAZTEC-Copy" sketch:type="MSShapeGroup">
                    <path d="M190.780017,63.0529063 L129.350579,63.0529063 L171.589399,14.1945646 L143.399722,14.1945646 L129.412489,0.114244927 L204.801153,0.114244927 L162.565282,48.9725866 L204.801153,48.9725866 L190.780017,63.0529063 Z" id="Fill-1"></path>
                    <path d="M43.6701188,11.4858493 L36.4295996,18.7693818 L26.7554286,18.7693818 L26.7554286,44.0227844 L16.9161643,49.6475596 L16.9161643,18.7693818 L7.24346735,18.7693818 L0,11.4858493 L43.6701188,11.4858493" id="Fill-2"></path>
                    <path d="M89.6618618,44.0227844 L79.8196494,44.0227844 L79.8196494,36.0392799 L76.8568148,33.1614537 L58.0420778,33.1614537 L58.0420778,44.0227844 L48.2028136,49.6475596 L48.2028136,11.4858493 L82.2533011,11.4858493 L89.6618618,21.5236835 L84.0221576,29.0792639 L89.6618618,34.7069802 L89.6618618,44.0227844 L89.6618618,44.0227844 Z M79.5498988,22.1442469 L76.9865309,18.7693818 L58.0420778,18.7693818 L58.0420778,25.7705726 L76.9113545,25.7705726 L79.5498988,22.1442469 L79.5498988,22.1442469 Z" id="Fill-3"></path>
                    <path d="M134.766228,44.0227844 L124.928438,44.0227844 L124.928438,34.7069802 L105.084816,34.7069802 L105.084816,44.0786645 L95.2440781,49.6475596 L95.2440781,18.7693818 L102.651165,11.4858493 L127.359142,11.4858493 L134.766228,18.7693818 L134.766228,44.0227844 L134.766228,44.0227844 Z M105.084816,27.535208 L124.929912,27.535208 L124.929912,18.7679113 L105.084816,18.7679113 L105.084816,27.535208 Z" id="Fill-4"></path>
                    <path d="M243.260516,11.4858493 L236.017048,18.7693818 L226.342877,18.7693818 L226.342877,44.0227844 L216.502139,49.6475596 L216.502139,18.7693818 L206.829442,18.7693818 L199.588923,11.4858493 L243.260516,11.4858493" id="Fill-5"></path>
                    <path d="M286.761119,11.4858493 L279.5206,18.7693818 L257.629527,18.7693818 L257.629527,24.5029762 L282.005843,24.5029762 L275.375579,31.1188883 L257.629527,31.1188883 L257.629527,36.745134 L285.601044,36.745134 L278.304511,44.0227844 L247.790262,44.0227844 L247.790262,11.4858493 L286.761119,11.4858493" id="Fill-6"></path>
                    <path d="M328.936554,11.4858493 L321.696035,18.7693818 L299.806436,18.7693818 L299.806436,36.745134 L327.776479,36.745134 L320.479946,44.0227844 L297.374258,44.0227844 L289.964223,36.745134 L289.964223,18.9090821 L297.374258,11.4858493 L328.936554,11.4858493" id="Fill-7"></path>
                </g>
            </g>
        </g>
    </g>
</svg>